<svg width="26" height="30" viewBox="0 0 26 30" fill="none" xmlns="http://www.w3.org/2000/svg">
<path d="M24.2766 10.6934C23.3275 9.64506 21.8966 9.0359 19.9133 8.8234V7.74673C19.9133 5.8059 19.0916 3.9359 17.6466 2.63256C16.1875 1.3009 14.2891 0.677562 12.32 0.861729C8.93413 1.18756 6.08663 4.46006 6.08663 8.00173V8.8234C4.1033 9.0359 2.67247 9.64506 1.7233 10.6934C0.349132 12.2234 0.391632 14.2634 0.547465 15.6801L1.53913 23.5709C1.83663 26.3334 2.9558 29.1667 9.04747 29.1667H16.9525C23.0441 29.1667 24.1633 26.3334 24.4608 23.5851L25.4525 15.6659C25.6083 14.2634 25.6366 12.2234 24.2766 10.6934ZM12.5183 2.8309C13.935 2.7034 15.2808 3.14256 16.3291 4.09173C17.3633 5.02673 17.9441 6.3584 17.9441 7.74673V8.7384H8.0558V8.00173C8.0558 5.48006 10.1383 3.05756 12.5183 2.8309ZM7.9283 16.6292H7.91413C7.13497 16.6292 6.49747 15.9917 6.49747 15.2126C6.49747 14.4334 7.13497 13.7959 7.91413 13.7959C8.70747 13.7959 9.34497 14.4334 9.34497 15.2126C9.34497 15.9917 8.70747 16.6292 7.9283 16.6292ZM17.845 16.6292H17.8308C17.0516 16.6292 16.4141 15.9917 16.4141 15.2126C16.4141 14.4334 17.0516 13.7959 17.8308 13.7959C18.6241 13.7959 19.2616 14.4334 19.2616 15.2126C19.2616 15.9917 18.6241 16.6292 17.845 16.6292Z" fill="#222F5D" fill-opacity="0.4"/>
</svg>
