<svg width="14" height="17" viewBox="0 0 14 17" fill="none" xmlns="http://www.w3.org/2000/svg">
<path d="M0.516902 6.8166C0.596006 6.7354 0.894691 6.3882 1.17292 6.1026C2.80409 4.3064 7.05933 1.3664 9.28651 0.469C9.62474 0.3248 10.4799 0.0196 10.9368 0C11.3746 0 11.7919 0.1008 12.1902 0.3052C12.6866 0.5908 13.0849 1.0402 13.3031 1.5708C13.4435 1.939 13.6618 3.0408 13.6618 3.0604C13.88 4.2658 14 6.2244 14 8.3888C14 10.451 13.88 12.3298 13.7013 13.5534C13.6809 13.573 13.4626 14.9422 13.224 15.4112C12.7862 16.268 11.931 16.8 11.0159 16.8H10.9368C10.3408 16.779 9.08738 16.247 9.08738 16.2274C6.98022 15.3286 2.82319 12.5328 1.15246 10.675C1.15246 10.675 0.681929 10.1976 0.47735 9.8994C0.158208 9.471 0 8.9404 0 8.4098C0 7.8176 0.178665 7.266 0.516902 6.8166Z" fill="#222F5D"/>
</svg>
