<svg width="21" height="17" viewBox="0 0 21 17" fill="none" xmlns="http://www.w3.org/2000/svg">
<path d="M13.4314 2.00691C14.4976 1.3372 15.5141 0.780245 16.2865 0.469C16.6247 0.3248 17.4799 0.0196 17.9368 0C18.3746 0 18.7919 0.1008 19.1902 0.3052C19.6866 0.5908 20.0849 1.0402 20.3031 1.5708C20.4435 1.939 20.6618 3.0408 20.6618 3.0604C20.88 4.2658 21 6.2244 21 8.3888C21 10.451 20.88 12.3298 20.7013 13.5534C20.6962 13.5583 20.6785 13.6488 20.6511 13.7888C20.5697 14.2052 20.4026 15.0602 20.224 15.4112C19.7862 16.268 18.931 16.8 18.0159 16.8H17.9368C17.3408 16.779 16.0874 16.247 16.0874 16.2274C15.3779 15.9248 14.4359 15.407 13.4348 14.7825C13.37 15.0339 13.298 15.2658 13.224 15.4112C12.7862 16.268 11.931 16.8 11.0159 16.8H10.9368C10.3408 16.779 9.08738 16.247 9.08738 16.2274C6.98022 15.3286 2.82318 12.5328 1.15246 10.675C1.15246 10.675 0.681929 10.1976 0.47735 9.8994C0.158207 9.471 0 8.9404 0 8.4098C0 7.8176 0.178665 7.266 0.516903 6.8166C0.544413 6.78836 0.59848 6.72795 0.669006 6.64915C0.801279 6.50136 0.991449 6.28888 1.17292 6.1026C2.80409 4.3064 7.05933 1.3664 9.28651 0.469C9.62474 0.3248 10.4799 0.0196 10.9368 0C11.3746 0 11.7919 0.1008 12.1902 0.3052C12.6866 0.5908 13.0849 1.0402 13.3031 1.5708C13.342 1.67277 13.3868 1.83099 13.4314 2.00691Z" fill="#222F5D"/>
</svg>
