<svg width="30" height="30" viewBox="0 0 30 30" fill="none" xmlns="http://www.w3.org/2000/svg">
<path d="M8.25683 0.833496H5.56516C2.46266 0.833496 0.833496 2.46266 0.833496 5.551V8.24266C0.833496 11.331 2.46266 12.9602 5.551 12.9602H8.24266C11.331 12.9602 12.9602 11.331 12.9602 8.24266V5.551C12.9743 2.46266 11.3452 0.833496 8.25683 0.833496Z" fill="#222F5D"/>
<path d="M24.4492 0.833496H21.7575C18.6692 0.833496 17.04 2.46266 17.04 5.551V8.24266C17.04 11.331 18.6692 12.9602 21.7575 12.9602H24.4492C27.5375 12.9602 29.1667 11.331 29.1667 8.24266V5.551C29.1667 2.46266 27.5375 0.833496 24.4492 0.833496Z" fill="#222F5D"/>
<path d="M24.4492 17.0259H21.7575C18.6692 17.0259 17.04 18.655 17.04 21.7434V24.435C17.04 27.5234 18.6692 29.1525 21.7575 29.1525H24.4492C27.5375 29.1525 29.1667 27.5234 29.1667 24.435V21.7434C29.1667 18.655 27.5375 17.0259 24.4492 17.0259Z" fill="#222F5D"/>
<path d="M8.25683 17.0259H5.56516C2.46266 17.0259 0.833496 18.655 0.833496 21.7434V24.435C0.833496 27.5375 2.46266 29.1667 5.551 29.1667H8.24266C11.331 29.1667 12.9602 27.5375 12.9602 24.4492V21.7575C12.9743 18.655 11.3452 17.0259 8.25683 17.0259Z" fill="#222F5D"/>
</svg>
