<svg width="16" height="16" viewBox="0 0 16 16" fill="none" xmlns="http://www.w3.org/2000/svg">
<path d="M6.41247 2.8864V11.5437C6.41247 12.2363 6.1303 12.8711 5.6814 13.3329L5.65576 13.3585C5.59805 13.4162 5.53392 13.4739 5.47621 13.5188C5.28382 13.6856 5.06577 13.8138 4.84132 13.9036C4.77078 13.9357 4.70025 13.9613 4.62971 13.987C4.37961 14.0703 4.11027 14.1088 3.84735 14.1088C3.6742 14.1088 3.50106 14.0896 3.33433 14.0575C3.25097 14.0383 3.16759 14.019 3.08422 13.9934C2.98162 13.9613 2.88543 13.9292 2.78924 13.8844C2.78924 13.8779 2.78923 13.8779 2.78282 13.8844C2.60326 13.7946 2.43012 13.692 2.2698 13.5701L2.26338 13.5637C2.18002 13.4996 2.10307 13.4355 2.03253 13.3585C1.96199 13.2816 1.89144 13.2046 1.8209 13.1212C1.69906 12.9609 1.59646 12.7878 1.50668 12.6082C1.51309 12.6018 1.51309 12.6018 1.50668 12.6018C1.50668 12.6018 1.50667 12.5954 1.50026 12.589C1.46178 12.4992 1.42972 12.403 1.39765 12.3068C1.372 12.2234 1.35276 12.1401 1.33352 12.0567C1.30146 11.89 1.28223 11.7168 1.28223 11.5437V2.8864C1.28223 1.92448 1.92351 1.2832 2.88543 1.2832H4.80927C5.77119 1.2832 6.41247 1.92448 6.41247 2.8864Z" stroke="#222F5D" stroke-width="0.961921" stroke-linecap="round" stroke-linejoin="round"/>
<path d="M14.1081 10.5817V12.5056C14.1081 13.4675 13.4669 14.1088 12.5049 14.1088H3.84766C4.11058 14.1088 4.37992 14.0703 4.63002 13.9869C4.70056 13.9613 4.77109 13.9356 4.84163 13.9035C5.06608 13.8138 5.28413 13.6855 5.47651 13.5188C5.53423 13.4739 5.59836 13.4162 5.65607 13.3585L5.68171 13.3328L10.0424 8.97852H12.5049C13.4669 8.97852 14.1081 9.6198 14.1081 10.5817Z" stroke="#222F5D" stroke-width="0.961921" stroke-linecap="round" stroke-linejoin="round"/>
<path d="M3.08452 13.9932C2.69975 13.8778 2.33423 13.6662 2.03283 13.3583C1.72502 13.0569 1.51338 12.6914 1.39795 12.3066C1.64805 13.1082 2.28292 13.7431 3.08452 13.9932Z" stroke="#222F5D" stroke-width="0.961921" stroke-linecap="round" stroke-linejoin="round"/>
<path d="M11.7802 7.24004L10.0424 8.97792L5.68164 13.3322C6.13054 12.8705 6.41271 12.2356 6.41271 11.543V5.34827L8.15057 3.6104C8.83033 2.93065 9.74096 2.93065 10.4207 3.6104L11.7802 4.96992C12.46 5.64967 12.46 6.56029 11.7802 7.24004Z" stroke="#222F5D" stroke-width="0.961921" stroke-linecap="round" stroke-linejoin="round"/>
<path d="M3.84734 12.1849C4.2015 12.1849 4.48862 11.8978 4.48862 11.5436C4.48862 11.1895 4.2015 10.9023 3.84734 10.9023C3.49317 10.9023 3.20605 11.1895 3.20605 11.5436C3.20605 11.8978 3.49317 12.1849 3.84734 12.1849Z" stroke="#222F5D" stroke-width="0.961921" stroke-linecap="round" stroke-linejoin="round"/>
</svg>
