<svg width="14" height="17" viewBox="0 0 14 17" fill="none" xmlns="http://www.w3.org/2000/svg">
<path d="M13.4831 6.8166C13.404 6.7354 13.1053 6.3882 12.8271 6.1026C11.1959 4.3064 6.94067 1.3664 4.71349 0.469C4.37526 0.3248 3.52012 0.0196 3.06322 0C2.62543 0 2.20809 0.1008 1.80984 0.3052C1.3134 0.5908 0.91515 1.0402 0.696932 1.5708C0.556455 1.939 0.338238 3.0408 0.338238 3.0604C0.12002 4.2658 0 6.2244 0 8.3888C0 10.451 0.12002 12.3298 0.298685 13.5534C0.319143 13.573 0.53736 14.9422 0.776035 15.4112C1.21383 16.268 2.06897 16.8 2.98412 16.8H3.06322C3.65923 16.779 4.91262 16.247 4.91262 16.2274C7.01978 15.3286 11.1768 12.5328 12.8475 10.675C12.8475 10.675 13.3181 10.1976 13.5226 9.8994C13.8418 9.471 14 8.9404 14 8.4098C14 7.8176 13.8213 7.266 13.4831 6.8166Z" fill="#222F5D" fill-opacity="0.46"/>
</svg>
