<svg width="21" height="17" viewBox="0 0 21 17" fill="none" xmlns="http://www.w3.org/2000/svg">
<path fill-rule="evenodd" clip-rule="evenodd" d="M7.56863 2.00691C6.50235 1.3372 5.48594 0.780245 4.71349 0.469C4.37526 0.3248 3.52012 0.0196 3.06322 0C2.62543 0 2.20809 0.1008 1.80984 0.3052C1.3134 0.5908 0.91515 1.0402 0.696932 1.5708C0.556455 1.939 0.338238 3.0408 0.338238 3.0604C0.12002 4.2658 0 6.2244 0 8.3888C0 10.451 0.12002 12.3298 0.298685 13.5534C0.303834 13.5583 0.321509 13.6488 0.348884 13.7888C0.430279 14.2052 0.597429 15.0602 0.776035 15.4112C1.21383 16.268 2.06897 16.8 2.98412 16.8H3.06322C3.65923 16.779 4.91262 16.247 4.91262 16.2274C5.62213 15.9248 6.56406 15.407 7.56523 14.7825C7.63001 15.0339 7.70204 15.2658 7.77604 15.4112C8.21383 16.268 9.06897 16.8 9.98412 16.8H10.0632C10.6592 16.779 11.9126 16.247 11.9126 16.2274C14.0198 15.3286 18.1768 12.5328 19.8475 10.675C19.8475 10.675 20.3181 10.1976 20.5226 9.8994C20.8418 9.471 21 8.9404 21 8.4098C21 7.8176 20.8213 7.266 20.4831 6.8166C20.4556 6.78836 20.4015 6.72795 20.331 6.64915C20.1987 6.50136 20.0086 6.28888 19.8271 6.1026C18.1959 4.3064 13.9407 1.3664 11.7135 0.469C11.3753 0.3248 10.5201 0.0196 10.0632 0C9.62543 0 9.20809 0.1008 8.80984 0.3052C8.3134 0.5908 7.91515 1.0402 7.69693 1.5708C7.65803 1.67277 7.61317 1.83099 7.56863 2.00691Z" fill="#222F5D" fill-opacity="0.46"/>
</svg>
