<svg width="16" height="17" viewBox="0 0 16 17" fill="none" xmlns="http://www.w3.org/2000/svg">
<path d="M14.1215 15.3506H1.2959C1.03298 15.3506 0.814941 15.1326 0.814941 14.8696C0.814941 14.6067 1.03298 14.3887 1.2959 14.3887H14.1215C14.3844 14.3887 14.6025 14.6067 14.6025 14.8696C14.6025 15.1326 14.3844 15.3506 14.1215 15.3506Z" fill="#222F5D"/>
<path d="M2.38624 14.8704H1.42432L1.45638 7.15575C1.45638 6.61066 1.70648 6.10407 2.13614 5.7706L6.6251 2.27561C7.25997 1.78183 8.15135 1.78183 8.79263 2.27561L13.2816 5.76418C13.7048 6.09765 13.9614 6.61707 13.9614 7.15575V14.8704H12.9994V7.16217C12.9994 6.91848 12.884 6.68121 12.6916 6.52731L8.20265 3.03874C7.91407 2.81429 7.51007 2.81429 7.21508 3.03874L2.72612 6.53372C2.53374 6.68122 2.4183 6.91848 2.4183 7.16217L2.38624 14.8704Z" fill="#222F5D"/>
<path d="M10.9157 15.351H4.50293C4.24001 15.351 4.02197 15.1329 4.02197 14.87V8.77784C4.02197 7.98265 4.66967 7.33496 5.46485 7.33496H9.95382C10.749 7.33496 11.3967 7.98265 11.3967 8.77784V14.87C11.3967 15.1329 11.1787 15.351 10.9157 15.351ZM4.98389 14.389H10.4348V8.77784C10.4348 8.51492 10.2167 8.29688 9.95382 8.29688H5.46485C5.20193 8.29688 4.98389 8.51492 4.98389 8.77784V14.389Z" fill="#222F5D"/>
<path d="M6.42676 12.626C6.16384 12.626 5.9458 12.408 5.9458 12.145V11.1831C5.9458 10.9202 6.16384 10.7021 6.42676 10.7021C6.68969 10.7021 6.90772 10.9202 6.90772 11.1831V12.145C6.90772 12.408 6.68969 12.626 6.42676 12.626Z" fill="#222F5D"/>
<path d="M8.67091 6.05274H6.74707C6.48415 6.05274 6.26611 5.83471 6.26611 5.57178C6.26611 5.30886 6.48415 5.09082 6.74707 5.09082H8.67091C8.93384 5.09082 9.15188 5.30886 9.15188 5.57178C9.15188 5.83471 8.93384 6.05274 8.67091 6.05274Z" fill="#222F5D"/>
</svg>
