<svg width="20" height="19" viewBox="0 0 20 19" fill="none" xmlns="http://www.w3.org/2000/svg">
<circle cx="12" cy="8" r="8" fill="#E2E2E2"/>
<path d="M1.75586 11.5449V14.1641C1.75586 16.7833 2.80586 17.8333 5.42503 17.8333H8.56919C11.1884 17.8333 12.2384 16.7833 12.2384 14.1641V11.5449" stroke="#222F5D" stroke-width="0.875" stroke-linecap="round" stroke-linejoin="round"/>
<path d="M7.00012 11.9993C8.06762 11.9993 8.85512 11.1302 8.75012 10.0627L8.36512 6.16602H5.64095L5.25012 10.0627C5.14512 11.1302 5.93262 11.9993 7.00012 11.9993Z" stroke="#222F5D" stroke-width="0.875" stroke-linecap="round" stroke-linejoin="round"/>
<path d="M10.681 11.9993C11.8593 11.9993 12.7226 11.0427 12.606 9.87018L12.4426 8.26602C12.2326 6.74935 11.6493 6.16602 10.121 6.16602H8.3418L8.75013 10.2552C8.8493 11.2177 9.71846 11.9993 10.681 11.9993Z" stroke="#222F5D" stroke-width="0.875" stroke-linecap="round" stroke-linejoin="round"/>
<path d="M3.29005 11.9993C4.25255 11.9993 5.12172 11.2177 5.21505 10.2552L5.34339 8.96602L5.62339 6.16602H3.84422C2.31589 6.16602 1.73255 6.74935 1.52255 8.26602L1.36505 9.87018C1.24839 11.0427 2.11172 11.9993 3.29005 11.9993Z" stroke="#222F5D" stroke-width="0.875" stroke-linecap="round" stroke-linejoin="round"/>
<path d="M7.00033 14.916C6.02616 14.916 5.54199 15.4002 5.54199 16.3743V17.8327H8.45866V16.3743C8.45866 15.4002 7.97449 14.916 7.00033 14.916Z" stroke="#222F5D" stroke-width="0.875" stroke-linecap="round" stroke-linejoin="round"/>
</svg>
