<svg width="19" height="17" viewBox="0 0 19 17" fill="none" xmlns="http://www.w3.org/2000/svg">
<path d="M12.4821 9.40594C12.2128 9.66887 12.0589 10.0472 12.0973 10.4512C12.155 11.1438 12.7899 11.6504 13.4825 11.6504H14.7009V12.4135C14.7009 13.741 13.6172 14.8248 12.2897 14.8248H4.92782C3.60037 14.8248 2.5166 13.741 2.5166 12.4135V8.09774C2.5166 6.77029 3.60037 5.68652 4.92782 5.68652H12.2897C13.6172 5.68652 14.7009 6.77029 14.7009 8.09774V9.02119H13.4055C13.0464 9.02119 12.7194 9.16226 12.4821 9.40594Z" stroke="#222F5D" stroke-width="0.961921" stroke-linecap="round" stroke-linejoin="round"/>
<path d="M2.5166 8.67383V5.74321C2.5166 4.98009 2.98474 4.3003 3.69656 4.03096L8.78832 2.10712C9.58351 1.80572 10.4364 2.39572 10.4364 3.24862V5.68548" stroke="#222F5D" stroke-width="0.961921" stroke-linecap="round" stroke-linejoin="round"/>
<path d="M15.3805 9.67361V10.9947C15.3805 11.3474 15.0984 11.6359 14.7392 11.6488H13.4823C12.7897 11.6488 12.1549 11.1422 12.0972 10.4496C12.0587 10.0456 12.2126 9.66721 12.4819 9.40428C12.7192 9.1606 13.0463 9.01953 13.4054 9.01953H14.7392C15.0984 9.03236 15.3805 9.32091 15.3805 9.67361Z" stroke="#222F5D" stroke-width="0.961921" stroke-linecap="round" stroke-linejoin="round"/>
<path d="M5.40283 8.41016H9.8918" stroke="#222F5D" stroke-width="0.961921" stroke-linecap="round" stroke-linejoin="round"/>
</svg>
